<svg width="121" height="20" viewBox="0 0 121 20" fill="none" xmlns="http://www.w3.org/2000/svg">
<g clip-path="url(#clip0_3_406)">
<path d="M52.9074 16.1099H63.9411L65.7535 19.9802H71.0637L61.2065 0H55.5052L46.2173 19.9969H51.1459L52.8883 16.1263L52.9074 16.1099ZM54.7549 12.0058L58.2875 4.14999L58.313 4.09411L58.3384 4.14999L62.0206 12.0026L62.0397 12.0486H54.7263L54.7549 12.0058Z" fill="#28282A"/>
<path d="M94.2441 20H98.9119V0H93.0739L85.7192 14.2486L78.2723 0H72.0337V20H76.5743V6.14272V6.02433L76.6284 6.12956L83.8782 20H86.9403L94.19 6.12956L94.2441 6.02433V6.14272V20Z" fill="#28282A"/>
<path d="M105.882 11.7363H120.258V7.8198H105.882V3.91319H120.579V0H101.217V20H120.827V16.0835H105.882V11.7363Z" fill="#28282A"/>
<path d="M21.0943 3.91319V0H0V20H4.66148V3.91319H21.0943Z" fill="#28282A"/>
<path d="M21.0943 11.7363V7.81982H8.43896V20H13.1036V11.7363H21.0943Z" fill="#28282A"/>
<path d="M40.5954 19.9969H45.4254V19.9015C45.2441 19.5727 45.0787 19.0234 45.0787 17.4384V14.502C45.0787 11.2794 42.6112 10.2271 41.5206 9.89825C42.6144 9.54311 45.0183 8.51051 45.0183 5.50163V5.17279C45.0183 0.453952 39.8989 0 37.0435 0H23.3994V19.9969H28.1372V12.4959H36.4649C39.2471 12.4959 40.3346 13.4824 40.3346 16.0605V18.7602C40.3377 19.4771 40.4364 19.77 40.5954 19.9969ZM40.0166 6.3992C40.0166 7.45477 39.3998 8.5829 37.6605 8.5829H28.1372V4.09732L37.6573 4.14357C38.7956 4.14357 40.0135 4.69582 40.0135 6.24794L40.0166 6.3992Z" fill="#28282A"/>
</g>
<defs>
<clipPath id="clip0_3_406">
<rect width="120.826" height="20" fill="white"/>
</clipPath>
</defs>
</svg>
